<svg xmlns="http://www.w3.org/2000/svg" xmlns:v="https://svgstorm.com" viewBox="0 0 650 650" width="1024" height="1024">
    <g fill="None" fill-opacity="0.0" stroke="#E3EAFA" stroke-opacity="1.00" stroke-width="0.3"></g>
    <g fill="None" fill-opacity="0.0" stroke="#CE441F" stroke-opacity="1.00" stroke-width="0.3"></g>
    <g fill="None" fill-opacity="0.0" stroke="#F9570B" stroke-opacity="1.00" stroke-width="0.3"></g>
    <g fill="None" fill-opacity="0.0" stroke="#06121B" stroke-opacity="1.00" stroke-width="0.3" transform="matrix(1, 0, 0, 1, -181.706055, -106.280899)">
        <path d="
M 336.00 302.00 
C 326.90 300.45 333.22 307.56 336.00 302.00 Z"></path>
    </g>
    <g fill="None" fill-opacity="0.0" stroke="#CA553B" stroke-opacity="1.00" stroke-width="0.3" transform="matrix(1, 0, 0, 1, -181.706055, -106.280899)">
        <path d="
M 426.00 432.00 
C 426.66 428.34 426.29 423.18 427.00 419.00
C 425.82 422.88 426.31 427.46 426.00 432.00 Z"></path>
    </g>
    <g fill="None" fill-opacity="0.0" stroke="#522325" stroke-opacity="1.00" stroke-width="0.3" transform="matrix(1, 0, 0, 1, -181.706055, -106.280899)">
        <path d="
M 522.00 472.00 
C 522.89 470.20 524.68 468.50 526.00 467.00
C 534.01 457.90 546.78 457.87 553.77 468.23 C 560.76 478.59 554.64 492.55 542.00 494.00
C 541.94 494.01 542.00 495.00 542.00 495.00
C 564.26 494.42 562.90 460.84 542.00 459.00
C 533.87 458.28 522.84 462.45 522.00 472.00 Z"></path>
    </g>
    <g fill="None" fill-opacity="0.0" stroke="#F35317" stroke-opacity="1.00" stroke-width="0.3" transform="matrix(1, 0, 0, 1, -181.706055, -106.280899)">
        <path d="
M 526.00 467.00 
C 523.34 470.72 522.42 475.35 523.00 480.00
C 523.58 482.22 523.84 484.97 525.00 487.00
C 528.68 492.05 536.15 494.12 542.00 494.00
C 554.64 492.55 560.76 478.59 553.77 468.23 C 546.78 457.87 534.01 457.90 526.00 467.00 Z"></path>
    </g>
    <g fill="None" fill-opacity="0.0" stroke="#793928" stroke-opacity="1.00" stroke-width="0.3" transform="matrix(1, 0, 0, 1, -181.706055, -106.280899)">
        <path d="
M 522.00 472.00 
C 521.96 472.50 522.03 473.50 522.00 474.00
C 521.85 476.46 522.54 478.22 523.00 480.00
C 522.42 475.35 523.34 470.72 526.00 467.00
C 524.68 468.50 522.89 470.20 522.00 472.00 Z"></path>
    </g>
    <g fill="None" fill-opacity="0.0" stroke="#50282E" stroke-opacity="1.00" stroke-width="0.3" transform="matrix(1, 0, 0, 1, -181.706055, -106.280899)">
        <path d="
M 521.00 479.00 
C 523.47 486.42 529.65 499.91 540.00 495.00
C 534.11 495.41 527.99 492.25 525.00 487.00
C 523.84 484.97 523.58 482.22 523.00 480.00
C 522.54 478.22 521.85 476.46 522.00 474.00
C 521.43 475.60 520.85 476.76 521.00 479.00 Z"></path>
    </g>
    <g fill="None" fill-opacity="0.0" stroke="#A03E34" stroke-opacity="1.00" stroke-width="0.3" transform="matrix(1, 0, 0, 1, -181.706055, -106.280899)">
        <path d="
M 750.00 488.00 
C 748.67 483.85 746.68 479.76 745.00 476.00
C 746.29 480.57 748.15 483.86 750.00 488.00 Z"></path>
    </g>
    <g fill="None" fill-opacity="0.0" stroke="#A24B3A" stroke-opacity="1.00" stroke-width="0.3" transform="matrix(1, 0, 0, 1, -181.706055, -106.280899)">
        <path d="
M 540.00 495.00 
C 540.50 494.97 541.50 495.01 542.00 495.00
C 542.00 495.00 541.94 494.01 542.00 494.00
C 536.15 494.12 528.68 492.05 525.00 487.00
C 527.99 492.25 534.11 495.41 540.00 495.00 Z"></path>
    </g>
    <g fill="None" fill-opacity="0.0" stroke="#253358" stroke-opacity="1.00" stroke-width="0.3"></g>
    <g fill="None" fill-opacity="0.0" stroke="#857F90" stroke-opacity="1.00" stroke-width="0.3"></g>
    <g fill="None" fill-opacity="0.0" stroke="#E8BAAC" stroke-opacity="1.00" stroke-width="0.3"></g>
    <g fill="None" fill-opacity="0.0" stroke="#5D262A" stroke-opacity="1.00" stroke-width="0.3"></g>
    <g fill="None" fill-opacity="0.0" stroke="#7095C6" stroke-opacity="1.00" stroke-width="0.3" transform="matrix(1, 0, 0, 1, -181.706055, -106.280899)">
        <path d="
M 509.00 690.00 
C 495.34 696.39 480.78 702.59 467.00 708.00
C 467.48 708.07 469.01 708.86 470.00 709.00
C 482.35 710.69 495.38 708.78 508.00 710.00
C 511.34 708.35 512.57 698.67 515.23 696.23 C 517.89 693.79 520.74 684.35 520.00 685.00
C 516.23 686.46 512.72 688.26 509.00 690.00 Z"></path>
    </g>
    <g fill="None" fill-opacity="0.0" stroke="#697DA8" stroke-opacity="1.00" stroke-width="0.3" transform="matrix(1, 0, 0, 1, -181.706055, -106.280899)">
        <path d="
M 452.00 732.00 
C 453.41 731.52 454.54 732.26 455.00 729.00
C 456.80 733.17 457.23 726.50 460.00 729.00
C 464.09 722.66 468.20 716.34 470.00 709.00
C 469.01 708.86 467.48 708.07 467.00 708.00
C 456.15 712.26 460.22 725.76 452.00 732.00 Z"></path>
    </g>
    <g fill="None" fill-opacity="0.0" stroke="#4F5378" stroke-opacity="1.00" stroke-width="0.3" transform="matrix(1, 0, 0, 1, -181.706055, -106.280899)">
        <path d="
M 312.00 746.00 
C 322.67 746.00 333.33 746.00 344.00 746.00
C 334.13 745.04 322.65 745.00 312.00 745.00
C 312.00 745.00 311.96 746.00 312.00 746.00 Z"></path>
    </g>
    <g fill="#222F4F" fill-opacity="1.00" stroke="None" transform="matrix(1, 0, 0, 1, -184.77919, -105.587395)">
        <path d="M 490 119 C 475.82 136.72 446 175 446 175 C 447.23 176.05 455.025 182.165 457.155 184.155 C 467.365 163.355 489.91 119.48 490 119 Z">
        </path>
    </g>
    <g fill="#090923" fill-opacity="1.00" stroke="None" transform="matrix(1, 0, 0, 1, -184.463135, -109.436539)">
        <path d="M 456.551 188.04 C 467.087 197.662 477.882 206.929 488.83 216.868 C 494.215 211.659 493.493 212.823 498.187 209.178 C 496.509 188.368 491.214 142.56 489.546 123.069 C 478.952 143.956 466.761 167.24 456.551 188.04 Z">
        </path>
    </g>
    <g fill="#CE441F" fill-opacity="1.00" stroke="None" transform="matrix(1, 0, 0, 1, -181.706055, -106.280899)">
        <path d="M 354.006 123.501 C 366.532 137.171 401.396 178.491 405.781 185.304 C 414.66 181.101 422.881 176.097 432 171 C 406.676 155.474 379.126 139.381 354.006 123.501 Z">
        </path>
    </g>
    <g fill="#AA291A" fill-opacity="1.00" stroke="None" transform="matrix(1, 0, 0, 1, -184.078079, -105.93232)">
        <path d="M 489.244 120.179 C 491.151 145.216 496.157 192.909 497.49 206.015 C 512.753 189.796 509.157 194.295 513.684 189.225 C 507.282 171.483 495.488 139.072 489.244 120.179 Z">
        </path>
    </g>
    <g fill="#0A0B24" fill-opacity="1.00" stroke="None" transform="matrix(1, 0, 0, 1, -181.373962, -106.170204)">
        <path d="M 369 202 C 376.287 198.284 399.43 188.224 405.995 185 C 401.667 178.266 357.605 125.026 353.475 123.176 C 352.625 135.776 366.574 189.725 369 202 Z">
        </path>
    </g>
    <g fill="#F9570B" fill-opacity="1.00" stroke="None" transform="matrix(1, 0, 0, 1, -181.706055, -106.280899)">
        <path d="M 442.914 175.643 C 435.339 183.388 325.583 284.075 316.933 295.575 C 317.503 295.215 319.88 295.396 320.37 295.026 C 331.15 286.806 348.48 284.72 360.23 277.23 C 371.98 269.74 384.14 262.15 395.75 254.75 C 407.36 247.35 417.13 232.49 432 233 C 442.06 233.34 450.95 240.44 448 251 C 445.05 261.56 432.46 261.81 426 257 C 424.53 255.91 422.67 254.79 422 253 C 413.08 258.15 402.65 262.1 393.77 267.77 C 384.89 273.44 375.2 278.63 366.3 284.31 C 357.41 289.98 344.34 293 341 303 C 341 305.26 341.3 307.76 341 310 C 340.71 311.62 341.22 313.37 341 315 C 344.78 315.49 523.93 255.61 530 254 C 531.65 254.64 520.43 242.4 517 240 C 510.74 235.62 453.525 182.682 442.914 175.643 Z">
        </path>
    </g>
    <g fill="#FB5307" fill-opacity="1.00" stroke="None" transform="matrix(1, 0, 0, 1, -181.706055, -106.280899)">
        <path d="M 539 176 C 547.23 180.73 594.245 196.962 603.683 211.406 C 607.121 221.027 602.256 224.139 594.749 234.53 C 626.726 241.568 662.809 259.959 683.279 284.782 C 682.694 305.019 682.262 306.088 666 338.781 C 680.447 351.587 695.95 366.558 709 382 C 731.528 365.821 731.636 364.119 771.336 325.673 C 767.714 318.273 736.615 251.794 702.986 231.531 C 675.625 207.351 565.267 172.866 539 176 Z">
        </path>
    </g>
    <g fill="#293A5E" fill-opacity="1.00" stroke="None" transform="matrix(1, 0, 0, 1, -183.466415, -106.297493)">
        <path d="M 496.746 206.32 C 503.204 209.292 507.31 211.407 520 218.29 C 518.39 211.848 514.512 195.922 513.017 189.542 C 505.814 196.628 504.832 197.678 496.746 206.32 Z">
        </path>
    </g>
    <g fill="#1D2140" fill-opacity="1.00" stroke="None" transform="matrix(1, 0, 0, 1, -186.621689, -105.483765)">
        <path d="M 490.973 212.084 C 492.993 213.954 519.249 237.177 530.399 247.271 C 525.928 229.309 525.535 228.051 523.146 217.271 C 508.223 209.323 507.65 209.243 499.949 205.285 C 493.029 210.87 497.922 206.579 490.973 212.084 Z">
        </path>
    </g>
    <g fill="#BF3513" fill-opacity="1.00" stroke="None" transform="matrix(1, 0, 0, 1, -181.706055, -106.280899)">
        <path d="M 315.824 296.253 C 316.284 300.531 327.376 302.154 341 303 C 363.945 290.009 411.419 261.473 422 253 C 422.67 254.79 431.44 243.849 432 233 C 415.136 230.496 326.604 288.033 315.824 296.253 Z">
        </path>
    </g>
    <g fill="#FAB698" fill-opacity="1.00" stroke="None" transform="matrix(1, 0, 0, 1, -181.706055, -106.280899)">
        <path d="M 593 248 C 595.42 266.38 605.621 329.846 607.469 347.959 C 618.86 357.689 631.845 378.596 636.695 384.266 C 643.845 392.636 682.96 427.96 685 430 C 679.75 415.6 680.06 399.18 675.67 384.33 C 671.28 369.48 668.42 353.47 666 338 C 663.38 341.34 597.47 250.41 593 248 Z">
        </path>
    </g>
    <g fill="#EE5A1E" fill-opacity="1.00" stroke="None" transform="matrix(1, 0, 0, 1, -181.706055, -106.280899)">
        <path d="M 314 251 C 312.41 250.89 286.14 278.06 283 282 C 266.2 303.07 243.75 358.94 243 362 C 250.62 356.72 275.747 332.551 283.272 326.301 C 287.813 310.251 311.16 253.94 314 251 Z">
        </path>
    </g>
    <g fill="#49628B" fill-opacity="1.00" stroke="None" transform="matrix(1, 0, 0, 1, -181.706055, -106.280899)">
        <path d="M 529.895 253.707 C 525.002 254.484 360.268 309.445 340.058 314.885 C 338.168 315.755 344.02 316.392 342.2 317.312 C 398.79 303.082 471.43 293.45 528 279 C 533.91 277.49 545.172 276.106 546.282 274.906 C 542.445 269.712 536.585 258.917 529.895 253.707 Z">
        </path>
    </g>
    <g fill="#0B0E2A" fill-opacity="1.00" stroke="None" transform="matrix(1, 0, 0, 1, -181.706055, -106.280899)">
        <path d="M 341.369 314.467 C 339.979 313.997 344.048 298.213 339.392 295.404 C 334.736 292.595 320.2 300.52 316 296.18 C 311.86 297.84 332.03 323.7 338.33 325.67 C 344.63 327.64 421.18 316.34 425 317 C 426.34 324.16 425.482 331.72 426.382 339 C 449.262 330.97 471.3 318.13 494 309 C 491.33 319.63 435.473 353.539 426.693 358.539 C 423.193 365.939 428.8 404.72 427 413 C 431.77 406.43 529.347 340.397 529.347 340.397 C 523.537 323.397 515.269 282.329 514.319 282.249">
        </path>
    </g>
    <g fill="#EA400C" fill-opacity="1.00" stroke="None" transform="matrix(1, 0, 0, 1, -181.706055, -106.280899)">
        <path d="M 666 338 C 669.983 358.159 679.75 415.6 685 430 C 687.42 432.42 701.149 447.475 705.709 451.655 C 708.009 429.815 706.36 406.25 707 384 C 715.12 387.9 751.104 513.58 761.907 521.68 C 749.544 555.433 724.951 637.198 725.147 643.574 C 748.373 628.116 765.294 583.61 769 577 C 774.672 566.334 786.069 530.984 790 505 C 793 479.016 798.34 427.761 795.245 402.626 C 792.37 379.276 777.668 338.95 771.198 325.418 C 741.461 353.473 734.682 360.508 709 382 C 696.78 366.89 686.991 357.184 666 338 Z">
        </path>
    </g>
    <g fill="#06121B" fill-opacity="1.00" stroke="None" transform="matrix(1, 0, 0, 1, -181.706055, -106.280899)">
        <path d="
M 336.00 302.00 
C 326.90 300.45 333.22 307.56 336.00 302.00 Z"></path>
    </g>
    <g fill="#273559" fill-opacity="1.00" stroke="None" transform="matrix(1, 0, 0, 1, -181.706055, -106.280899)">
        <path d="M 425.96 338.939 C 426.04 341.269 427 359 427 359 C 435.78 354 492.914 319.234 494.528 308.34 C 471.828 317.47 448.84 330.909 425.96 338.939 Z">
        </path>
    </g>
    <g fill="#729BCC" fill-opacity="1.00" stroke="None" transform="matrix(1, 0, 0, 1, -181.675873, -106.449936)">
        <path d="M 414 318 C 409.1 321.72 369.23 404.95 366 411 C 374.65 401.74 416.34 366.46 427 359 C 427 359 426.34 324.16 425 317 C 421.18 316.34 417.5 317.53 414 318 Z">
        </path>
    </g>
    <g fill="#F95309" fill-opacity="1.00" stroke="None" transform="matrix(1, 0, 0, 1, -181.706055, -106.280899)">
        <path d="M 529 340 C 527.43 342.53 427.763 403.829 423.973 416.329 C 423.263 420.509 416.06 558.258 416.12 560.258 C 417.46 559.528 530.53 352.64 531 344 C 530.61 342.66 529.25 340.99 529 340 Z">
        </path>
    </g>
    <g fill="#9E2418" fill-opacity="1.00" stroke="None" transform="matrix(1, 0, 0, 1, -181.706055, -106.280899)">
        <path d="M 531 344 C 530.53 352.64 416.67 558.209 416.355 559.932 C 421.389 554.317 503.957 479.983 510.65 473.418 C 510.371 463.568 510.629 465.617 510.273 456.136 C 518.516 445.128 549.689 410.585 545.759 400.365 C 541.829 390.145 533.23 351.63 531 344 Z">
        </path>
    </g>
    <g fill="#4D6A95" fill-opacity="1.00" stroke="None" transform="matrix(1, 0, 0, 1, -181.706055, -106.280899)">
        <path d="M 641 490 C 646.96 497.05 679.486 524.183 687.896 528.673 C 690.996 530.583 697.08 466.97 693.51 462.49 C 676.76 441.49 663.13 418.11 648 396 C 645.28 392.42 616.878 354.233 607.316 347.581 C 615.116 370.651 634.73 466.88 641 490 Z">
        </path>
    </g>
    <g fill="#4B6791" fill-opacity="1.00" stroke="None" transform="matrix(1, 0, 0, 1, -181.706055, -106.280899)">
        <path d="M 366 411 C 362.05 418.41 356.29 427.47 352.92 434.92 C 349.55 442.37 340.59 450.8 343.23 458.77 C 345.87 466.74 375.155 535.489 376.045 538.003 C 381.77 543.43 402.984 556.858 408 571 C 408.428 570.978 409 571 409 571 C 411.8 566.139 414.245 564.176 416.165 560.256 C 415.162 559.142 400.55 535.55 391.7 525.3 C 382.84 515.06 376.12 501.23 367.75 490.25 C 359.37 479.28 351.32 466.75 344 455 C 370.48 441 398.16 429.34 425 416 C 426.42 414.9 426.11 414.22 427 413 C 428.8 404.72 423.5 366.4 427 359 C 415.958 365.823 374.65 401.103 366 411 Z">
        </path>
    </g>
    <g fill="#303A5F" fill-opacity="1.00" stroke="None" transform="matrix(1, 0, 0, 1, -181.706055, -106.280899)">
        <path d="M 705.462 450.803 C 703.322 464.826 741.16 491.168 755 507.048 C 754.92 506.558 725.719 400.075 707.049 382.535 C 704.92 393.482 707.513 437.367 705.462 450.803 Z">
        </path>
    </g>
    <g fill="#0E122F" fill-opacity="1.00" stroke="None" transform="matrix(1, 0, 0, 1, -181.706055, -106.280899)">
        <path d="M 635.934 380.909 C 641.172 387.143 676.25 442.979 693 463.979 C 699.819 471.252 747.873 509.575 756.563 519.336 C 746.262 535.843 650.68 680.3 645 686 C 662.6 634.9 678.687 581.962 689.127 529.452 C 688.77 528.741 646.96 497.05 641 490 C 647.87 515.82 649.965 518.241 652.941 553.024 C 648.152 580.819 628.154 691.337 621 726 C 642.592 709.799 711.931 654.197 726 643 C 731.663 622.934 761.193 526.334 764.773 517.824 C 751.363 501.338 718.503 465.026 710.366 456.359 C 710.366 456.359 690.335 434.439 684.275 427.889 C 674.645 417.478 648.202 390.144 635.934 380.909 Z">
        </path>
    </g>
    <g fill="#243055" fill-opacity="1.00" stroke="None" transform="matrix(1, 0, 0, 1, -181.706055, -106.280899)">
        <path d="M 510.118 456.013 C 510.009 465.571 510.052 466.176 510.537 473.26 C 510.537 479.59 511.469 490.555 511.469 496.885 C 525.768 504.417 525.758 503.43 539.07 509.638 C 551.143 504.692 553.244 502.545 568.239 496 C 569.235 484.003 571.38 457.72 572 453 C 565.32 440.76 545.964 400.621 545.634 399.991 C 542.974 404.851 514.627 449.052 510.118 456.013 Z">
        </path>
    </g>
    <g fill="#080A25" fill-opacity="1.00" stroke="None" transform="matrix(1, 0, 0, 1, -181.706055, -106.280899)">
        <path d="M 416.153 560.247 C 418.303 557.187 422.84 421.77 425 416 C 398.16 429.34 370.48 441 344 455 C 351.32 466.75 404.763 552.827 416.153 560.247 Z">
        </path>
    </g>
    <g fill="#CA553B" fill-opacity="1.00" stroke="None" transform="matrix(1, 0, 0, 1, -181.706055, -106.280899)">
        <path d="
M 426.00 432.00 
C 426.66 428.34 426.29 423.18 427.00 419.00
C 425.82 422.88 426.31 427.46 426.00 432.00 Z"></path>
    </g>
    <g fill="#090B26" fill-opacity="1.00" stroke="None" transform="matrix(1, 0, 0, 1, -181.706055, -106.280899)">
        <path d="M 512 496 C 511.646 489.316 510.752 478.169 510.532 473.201 C 503.723 479.074 422.341 550.958 416.142 560.24 C 427.422 557.943 462.18 531.25 469 527 C 465.91 534.58 430.373 602.997 424.69 614.538 C 433.453 622.522 483.74 675.36 492 689 C 471.42 691.31 451.63 696.78 431 699 C 428.38 704.74 411.2 729.59 413 733 C 418.49 735.01 446.457 729.403 451.427 727.703 C 459.647 713.441 457.516 718.96 461.204 708.97 C 478.937 702.531 495.34 696.39 509 690 C 512.89 684.83 472.431 604.863 469.845 598 C 475.07 583.71 481.705 559.842 490.48 532.243 C 514.351 535.274 592.761 551.364 622.026 559.315 C 605.346 525.585 590.06 486.12 572 453 C 571.38 457.72 568.527 480.993 567 496 C 552.536 502.545 549.54 503.994 539.07 508.93 C 527.538 503.598 526.122 503.178 512 496 Z">
        </path>
    </g>
    <g fill="#334971" fill-opacity="1.00" stroke="None" transform="matrix(1, 0, 0, 1, -181.706055, -106.280899)">
        <path d="M 693.447 463.821 C 692.377 465.27 689.283 512.676 687.896 529.155 C 705.926 527.375 751.324 520.706 760 519 C 754.205 510.202 696.05 466.714 693.447 463.821 Z">
        </path>
    </g>
    <g fill="#E04317" fill-opacity="1.00" stroke="None" transform="matrix(1, 0, 0, 1, -181.706055, -106.280899)">
        <path d="M 241 502 C 241 510.65 242.918 524.031 248.856 539.409 C 258.843 544.638 269.33 562.55 267 550 C 256.38 530.73 249.29 510.5 242 490 C 242.18 492.71 241 498.39 241 502 Z">
        </path>
    </g>
    <g fill="#253358" fill-opacity="1.00" stroke="None" transform="matrix(1, 0, 0, 1, -181.706055, -106.280899)">
        <path d="M 688 528.41 C 677.451 580.92 660.585 636.64 643.912 687.74 C 649.592 682.04 760.831 518.85 759.618 519.069 C 756.024 519.719 711.618 525.699 688 528.41 Z">
        </path>
    </g>
    <g fill="#223155" fill-opacity="1.00" stroke="None" transform="matrix(1, 0, 0, 1, -181.706055, -106.280899)">
        <path d="M 469 527 C 462.18 531.25 449.76 538.69 451 539 C 436.41 567.37 424.26 596.29 409 624 C 408.83 625.11 417.18 621.74 421 622 C 422.59 618.89 455.25 557.08 458.7 549.69 C 462.14 542.31 465.91 534.58 469 527 Z">
        </path>
    </g>
    <g fill="#C6361B" fill-opacity="1.00" stroke="None" transform="matrix(1, 0, 0, 1, -181.706055, -106.280899)">
        <path d="M 304 642 C 309.25 647.25 326.79 664.58 331 666 C 332.91 658.05 336.8 637.95 337 637 C 336.63 629.23 276.89 567.95 267 550 C 262.818 540.844 251.11 543.95 245 528 C 255.11 571.46 274.59 607.58 304 642 Z">
        </path>
    </g>
    <g fill="#F9B495" fill-opacity="1.00" stroke="None" transform="matrix(1, 0, 0, 1, -182.274643, -107.11483)">
        <path d="M 522.455 532.872 C 502.815 532.712 516.653 532.608 490.619 532.643 C 499.701 545.461 518.892 576.53 524.533 582.537 C 523.661 567.983 522.552 542.456 522.455 532.872 Z">
        </path>
    </g>
    <g fill="#F9550D" fill-opacity="1.00" stroke="None" transform="matrix(1, 0, 0, 1, -181.706055, -106.280899)">
        <path d="M 523.891 581.397 C 541.858 577.215 602.816 562.815 621 559 C 602.894 553.923 540.12 537.438 521.455 532 C 521.976 542.056 523.167 573.512 523.891 581.397 Z">
        </path>
    </g>
    <g fill="#6486B2" fill-opacity="1.00" stroke="None" transform="matrix(1, 0, 0, 1, -181.706055, -106.280899)">
        <path d="M 470.01 597.835 C 482.799 593.279 509.535 585.409 523.675 581.179 C 514.185 568.049 499.96 543.375 490.33 532.02 C 486.495 543.495 475.235 582.225 470.01 597.835 Z">
        </path>
    </g>
    <g fill="#080A26" fill-opacity="1.00" stroke="None" transform="matrix(1, 0, 0, 1, -181.706055, -106.280899)">
        <path d="M 376 538 C 378.21 549.36 384.2 560.89 387.93 572.07 C 391.65 583.26 397.15 594.33 389.08 605.08 C 381 615.82 344.698 705.35 335.24 718.895 C 325.52 725.085 301.855 738.146 294.105 746.796 C 298.435 746.796 354 746 359 746 C 360.67 743.61 404.62 576.53 408 571 C 403.36 556.82 376.19 537.12 376 538 Z">
        </path>
    </g>
    <g fill="#2A3B61" fill-opacity="1.00" stroke="None" transform="matrix(1, 0, 0, 1, -181.706055, -106.280899)">
        <path d="M 294.025 746.975 C 297.025 744.055 326.426 725.495 336.057 719.167 C 343.607 704.805 388.083 609.554 392.894 597.997 C 397.705 586.44 378.21 549.36 376 538 C 361.06 595.95 349.41 655.8 334 714 C 325.66 713 317.18 712.57 309 711 C 307.76 716.7 292.635 741.545 294.025 746.975 Z">
        </path>
    </g>
    <g fill="#61759C" fill-opacity="1.00" stroke="None" transform="matrix(1, 0, 0, 1, -181.706055, -106.280899)">
        <path d="M 451 539 C 449.76 538.69 431.84 551.39 424 557 C 421.02 563.81 407.091 621.351 405.851 629.271 C 423.747 600.996 436.41 567.37 451 539 Z">
        </path>
    </g>
    <g fill="#E8BAAC" fill-opacity="1.00" stroke="None" transform="matrix(1, 0, 0, 1, -181.706055, -106.280899)">
        <path d="M 415.945 559.835 C 415.945 559.835 412.736 565.439 407.716 570.817 C 398.679 589.628 378.788 676.093 377.378 682.386 C 377.378 682.776 385.507 675.635 389 673 C 394.35 658.86 398.39 642.08 406 629 C 407.038 624.405 418.652 576.77 423.682 557.22 C 420.683 558.627 416.519 560.38 415.945 559.835 Z">
        </path>
    </g>
    <g fill="#DC4010" fill-opacity="1.00" stroke="None" transform="matrix(1, 0, 0, 1, -181.706055, -106.280899)">
        <path d="M 620.977 558.961 C 598.075 563.308 523.689 581.221 523.689 581.221 C 534.3 599.218 550.119 625.401 566.135 651.767 C 606.778 585.908 607.492 583.097 620.977 558.961 Z">
        </path>
    </g>
    <g fill="#9C2519" fill-opacity="1.00" stroke="None" transform="matrix(1, 0, 0, 1, -182.416275, -106.483818)">
        <path d="M 618.638 728.399 C 619.459 699.915 621.524 597.125 621.93 558.902 C 606.834 581.94 578.633 621.03 564.584 651.562 C 577.552 671.225 591.16 697.311 602.124 713.087 C 610.698 725.426 615.563 724.851 618.638 728.399 Z">
        </path>
    </g>
    <g fill="#263357" fill-opacity="1.00" stroke="None" transform="matrix(1, 0, 0, 1, -181.706055, -106.280899)">
        <path d="M 524 581 C 522.04 581.73 483.271 593.262 469.412 597.457 C 472.022 603.495 484.45 632.236 509 690 C 535.706 677.352 523.953 683.191 580.536 674.782 C 569.995 656.511 524 581.5 524 581 Z">
        </path>
    </g>
    <g fill="#080A26" fill-opacity="1.00" stroke="None" transform="matrix(1, 0, 0, 1, -181.706055, -106.280899)">
        <path d="M 524 683 C 534.874 680.514 571.276 674.798 581 675 C 573.845 668.64 509.305 612.709 475.859 595.51 C 480.098 602.887 517.019 671.183 524 683 Z">
        </path>
    </g>
    <g fill="#374A68" fill-opacity="1.00" stroke="None" transform="matrix(1, 0, 0, 1, -181.706055, -106.280899)">
        <path d="M 421.387 621.534 C 412.009 623.264 409.027 623.932 408.617 624.537 C 397.775 640.541 394.35 658.86 389 673 C 389.04 673.55 416.974 631.047 421.387 621.534 Z">
        </path>
    </g>
    <g fill="#506B96" fill-opacity="1.00" stroke="None" transform="matrix(1, 0, 0, 1, -181.706055, -106.280899)">
        <path d="M 524 683 C 523.05 683.26 520.97 684.235 520 684.615 C 520.74 683.965 511.34 708.35 508 710 C 514.08 707.69 579.466 681.861 582.026 677.121 C 581.866 676.881 581.1 675.2 581 675 C 573.12 673.2 532.17 680.76 524 683 Z">
        </path>
    </g>
    <g fill="#1C2647" fill-opacity="1.00" stroke="None" transform="matrix(1, 0, 0, 1, -181.706055, -106.280899)">
        <path d="M 506.571 710.953 C 537.331 713.933 570.641 713.218 604 714 C 600.172 708.658 588.7 686.78 582 677 C 579.44 681.74 511.975 706.839 506.571 710.953 Z">
        </path>
    </g>
    <g fill="#7095C6" fill-opacity="1.00" stroke="None" transform="matrix(1, 0, 0, 1, -181.706055, -106.280899)">
        <path d="M 520 685 C 516.23 686.46 477.739 701.466 461.381 708.595 C 461.861 708.665 495.95 709.852 508.57 711.072 C 511.91 709.422 520.74 684.35 520 685 Z">
        </path>
    </g>
    <g fill="#697DA8" fill-opacity="1.00" stroke="None" transform="matrix(1, 0, 0, 1, -181.706055, -106.280899)">
        <path d="M 450.503 727.902 C 451.913 727.422 454.499 727.911 459.824 727.701 C 463.914 721.361 467.914 714.511 471.101 709 C 466.673 708.86 461.904 708.576 461.424 708.506 C 455.806 718.782 458.704 712.849 450.503 727.902 Z">
        </path>
    </g>
    <g fill="#0B0D2A" fill-opacity="1.00" stroke="None" transform="matrix(1, 0, 0, 1, -181.706055, -106.280899)">
        <path d="M 604 714 C 571.103 712.954 483.798 709.242 470 709 C 467.838 717.064 453.37 737.04 450 741 C 461 741.78 486.835 732.243 503.581 727.774 C 521.852 727.378 614.35 730.663 618 728.103 C 614.669 724.249 608.745 719.473 604 714 Z">
        </path>
    </g>
    <g fill="#8B9AC4" fill-opacity="1.00" stroke="None" transform="matrix(1, 0, 0, 1, -181.706055, -106.280899)">
        <path d="M 459.638 727.715 C 456.868 725.215 374.895 737.483 361.545 737.803 C 359.875 742.601 360.473 741.939 359 746 C 354 746 296.989 744.033 293.989 746.953 C 303.689 748.713 680.43 749.01 692 745 C 646.65 737.2 599.721 734.61 554.081 728.09 C 546.081 728.09 522.178 727.005 502.43 727.411 C 484.327 732.847 469.394 736.662 450 741 C 453.37 737.04 456.828 732.075 459.638 727.715 Z">
        </path>
    </g>
    <ellipse style="fill: rgb(10, 8, 36);" cx="252.796" cy="140.597" rx="14.549" ry="14.549"></ellipse>
    <g fill="#6486B2" fill-opacity="1.00" stroke="None" transform="matrix(1, 0, 0, 1, -126.537224, -253.967819)">
        <path d="M 454.611 604.133 C 475.51 593.249 473.147 594.813 484.382 589.01 C 488.743 555.657 486.637 584.8 490.421 547.897 C 482.998 559.598 470.136 580.49 454.611 604.133 Z">
        </path>
    </g>
    <g fill="#F9B495" fill-opacity="1.00" stroke="None" transform="matrix(1, 0, 0, 1, -109.473137, -231.223038)">
        <path d="M 499.911 577.788 C 488.015 554.224 487.172 552.823 473.529 525.151 C 469.36 550.532 468.603 551.696 467.28 566.374 C 495.386 575.806 475.915 569.302 499.911 577.788 Z">
        </path>
    </g>
</svg>