<svg viewBox="0 0 620 620" width="1024" height="1024" xmlns="http://www.w3.org/2000/svg" xmlns:bx="https://boxy-svg.com">
  <defs></defs>
  <g fill="#F1F6F9" fill-opacity="1.00" stroke="None" transform="matrix(1, 0, 0, 1, -211.266235, -133.019485)">
    <path d="M 486.979 208.116 C 492.113 210.69 497.947 213.752 511.843 221.548 C 509.778 178.857 509.3 175.512 508 142 C 505.68 148.94 490.942 195.525 486.979 208.116 Z"></path>
  </g>
  <g fill="#206487" fill-opacity="1.00" stroke="None" transform="matrix(1, 0, 0, 1, -211.266235, -133.019485)">
    <path d="M 507.95 142.023 C 511 211.112 508.24 154.976 511.642 216.737 C 529.775 226.053 515.247 218.472 542 232 C 541.09 220.78 536.613 187.575 533.957 168.259 C 518.751 152.813 516.143 149.671 507.95 142.023 Z"></path>
  </g>
  <g fill="#E9F4F7" fill-opacity="1.00" stroke="None" transform="matrix(1, 0, 0, 1, -211.266235, -133.019485)">
    <path d="M 437.913 216.26 C 454.73 207.581 452.686 208.64 460 205 C 458.529 150.936 459.776 200.866 458 147 C 455.88 145.78 439.803 208.52 437.913 216.26 Z"></path>
  </g>
  <g fill="#1E5A7D" fill-opacity="1.00" stroke="None" transform="matrix(1, 0, 0, 1, -211.266235, -133.019485)">
    <path d="M 458 147 C 459.299 182.948 457.852 154.212 459.67 196.047 C 467.84 199.177 476.075 201.53 485 204 C 480.359 184.006 479.273 178.953 477.25 169.75 C 463.553 153.157 468.551 159.397 458 147 Z"></path>
  </g>
  <g fill="#629EB4" fill-opacity="1.00" stroke="None" transform="matrix(1, 0, 0, 1, -211.266235, -133.019485)">
    <path d="M 438 216 C 434.64 226.445 437.108 219.118 433 234.519 C 434.63 233.719 453.286 224.483 460.466 220.933 C 460.21 209.594 460.173 216.719 460 205 C 446.714 211.15 454.557 207.494 438 216 Z"></path>
  </g>
  <g fill="#B7D5DE" fill-opacity="1.00" stroke="None" transform="matrix(1, 0, 0, 1, -211.266235, -133.019485)">
    <path d="M 487 208 C 484.95 215.47 477.908 236.52 469 263 C 477.818 259.58 503.997 248.461 514.18 244.338 C 513.73 229.516 513.172 233.79 513 222 C 502.738 216.55 505.104 216.812 487 208 Z"></path>
  </g>
  <g fill="#F9FAFA" fill-opacity="1.00" stroke="None" transform="matrix(1, 0, 0, 1, -211.266235, -133.019485)">
    <path d="M 487 208 C 486.13 208.24 385.8 257.483 370.72 265.253 C 368.433 276.961 368.58 275.49 365 291 C 373.93 293.54 383.14 295.31 392 298 C 463.478 265.524 398.765 294.396 469.698 263 C 486.679 212.655 484.95 215.47 487 208 Z"></path>
  </g>
  <g fill="#18DBE5" fill-opacity="1.00" stroke="None" transform="matrix(1, 0, 0, 1, -211.266235, -133.019485)">
    <path d="M 734 422 C 755.373 406.03 741.238 414.04 761.102 399.769 C 734.147 280.88 678.262 230.053 571 209 C 572.38 220.51 575.49 231.56 577 243 C 646.461 252.617 705.079 306.875 734 422 Z"></path>
  </g>
  <g fill="#BBD7E0" fill-opacity="1.00" stroke="None" transform="matrix(1, 0, 0, 1, -211.266235, -133.019485)">
    <path d="M 546 333 C 572.401 293.281 566.22 302.864 583 277 C 558.728 258.273 550.56 251.98 534 240 C 539.65 277.244 538.621 273.857 546 333 Z"></path>
  </g>
  <g fill="#5799B4" fill-opacity="1.00" stroke="None" transform="matrix(1, 0, 0, 1, -211.266235, -133.019485)">
    <path d="M 469 263 C 471.571 272.241 470.292 267.737 478 298 C 478.772 301.03 479.16 305.74 479 310 C 484.096 312.499 484.524 312.633 497 318 C 497.095 325.399 496.977 327.201 497.775 339.736 C 493.125 338.116 494.512 338.223 489 335.852 C 487.641 336.831 483.7 338.95 482 339 C 478.07 342.04 479.634 339.301 473 347 C 479.58 351.23 490.37 345.56 497 342 C 505.327 349.645 500.344 345.683 508 352 C 486.53 358.72 465.41 366.22 444 373 C 474.405 384.823 486.467 389.379 536 408 C 527.566 346.467 525.602 326.533 514.192 244.403 C 497.686 251.199 484.371 256.504 469 263 M 504 280 C 513.45 282.39 510.26 299.52 500.32 297.66 C 490.38 295.81 492.62 277.12 504 280 Z"></path>
  </g>
  <g fill="#88B6C4" fill-opacity="1.00" stroke="None" transform="matrix(1, 0, 0, 1, -211.266235, -133.019485)">
    <path d="M 392 298 C 403.878 298.552 392.959 298.067 403.216 298.535 C 459.495 273.714 409.937 295.681 466 271 C 469.488 266.78 466.848 270.098 470 266 C 469.38 264.044 469.655 264.937 469 263 C 399.927 294.396 463.478 265.291 392 298 Z"></path>
  </g>
  <g fill="#F5F8F9" fill-opacity="1.00" stroke="None" transform="matrix(1, 0, 0, 1, -211.266235, -133.019485)">
    <path d="M 466.004 270.978 C 465.474 272.378 452.528 308.117 449.671 314.314 C 444.311 314.553 382.175 310.24 365.977 308.78 C 350.477 316.347 296.25 345.41 281 352 C 291.64 353.16 304.537 356.67 315 359 C 330.491 352.045 377.103 331.594 389.814 326.329 C 407.873 326.27 440.14 325.874 460 326 C 461.29 314.37 470.1 305.08 478 298 C 476.73 289.83 470.757 269.011 469.978 265.986 C 468.564 267.609 467.499 269.105 466.004 270.978 Z"></path>
  </g>
  <g fill="#5A9DB7" fill-opacity="1.00" stroke="None" transform="matrix(1, 0, 0, 1, -211.266235, -133.019485)">
    <path d="M 567.174 301 C 569.422 329.237 567.41 303.871 570 331 C 574.441 331.347 580.878 331.518 592 332 C 628.609 314.576 598.976 328.697 630 314 C 598.074 288.967 597.04 287.87 583 277 C 577.327 285.567 572.657 292.575 567.174 301 Z"></path>
  </g>
  <g fill="#89BBCD" fill-opacity="1.00" stroke="None" transform="matrix(1, 0, 0, 1, -211.266235, -133.019485)">
    <path d="M 460 326 C 438.558 325.854 420.484 326.042 409.471 326.106 C 408.116 330.952 406.915 333.331 405.685 337.712 C 406.844 340.241 415.48 361.36 418 364 C 425.74 364.51 436.88 369.96 444 373 C 465.41 366.22 486.53 358.72 508 352 C 500.889 345.3 505.693 349.806 497 342 C 490.37 345.56 479.58 351.23 473 347 C 465.79 342.36 461.48 333.9 460 326 C 464 326 468 326 472 326 C 477.479 320.642 473.785 324.071 478 320 C 479.145 311.061 478.396 318.357 479 310 C 479.16 305.74 478.946 301.09 478 298 C 470.1 305.08 461.29 314.37 460 326 Z"></path>
  </g>
  <g fill="#0E3854" fill-opacity="1.00" stroke="None" transform="matrix(1, 0, 0, 1, -211.266235, -133.019485)">
    <path d="M 556.823 316.707 C 567.904 319.848 557.069 316.853 569.003 320.03 C 567.354 303.202 567.708 305.671 567.199 300.965 C 558.509 313.574 560.123 311.947 556.823 316.707 Z"></path>
  </g>
  <g fill="#377E9F" fill-opacity="1.00" stroke="None" transform="matrix(1, 0, 0, 1, -211.266235, -133.019485)">
    <path d="M 592 332 C 614.895 331.518 630.171 331.316 655 331 C 635.306 317.701 652.527 329.721 630 314 C 598.769 328.56 626.337 315.677 592 332 Z"></path>
  </g>
  <g fill="#195172" fill-opacity="1.00" stroke="None" transform="matrix(1, 0, 0, 1, -211.266235, -133.019485)">
    <path d="M 478 320 C 487.88 315.32 496.56 328.58 489 336 C 495.55 339.056 490.72 336.814 498 340 C 496.961 320.877 497.378 331.257 497 318 C 482.474 311.608 483.63 311.94 479 310 C 478.667 314.182 478.819 312.149 478 320 Z"></path>
  </g>
  <g fill="#031E3B" fill-opacity="1.00" stroke="None" transform="matrix(1, 0, 0, 1, -211.266235, -133.019485)">
    <path d="M 556.827 316.709 C 555.358 318.727 554.735 319.807 553.385 321.957 C 552.288 326.608 552.41 338.8 558.08 340.92 C 563.76 343.03 570.5 338.56 570 332 C 569.96 331.5 570 331 570 331 C 569.165 321.923 570.017 329.544 569 320 C 557.385 316.844 567.623 319.61 556.827 316.709 Z"></path>
  </g>
  <g fill="#031A33" fill-opacity="1.00" stroke="None" transform="matrix(1, 0, 0, 1, -211.266235, -133.019485)">
    <path d="M 478 320 C 474.235 323.666 475.412 322.305 472 326 C 470.22 331.87 476.14 339.17 482 339 C 483.7 338.95 488.75 336.25 489 336 C 496.56 328.58 487.88 315.32 478 320 Z"></path>
  </g>
  <g fill="#B1D0DB" fill-opacity="1.00" stroke="None" transform="matrix(1, 0, 0, 1, -211.266235, -133.019485)">
    <path d="M 315 359 C 313.738 365.485 312.933 369.238 311 375 C 306 375.895 303.77 376.562 297 378 C 303.352 386.358 309.442 393.828 317 403 C 344.08 392.143 370.36 381.71 397 371 C 399.977 358.847 408.043 331.776 409.466 326.131 C 404.105 326.039 395.022 326.263 388.93 326.246 C 368.388 334.901 334.591 349.903 315 359 Z"></path>
  </g>
  <g fill="#255E80" fill-opacity="1.00" stroke="None" transform="matrix(1, 0, 0, 1, -211.266235, -133.019485)">
    <path d="M 546 333 C 550.59 364.157 547.115 340.637 552 372 C 584.107 339.801 557.371 366.411 592.007 331.958 C 576.819 331.347 576.561 331.194 569.932 330.914 C 570.432 337.474 563.76 343.03 558.08 340.92 C 552.41 338.8 552.539 326.602 553.359 322.012 C 550.805 325.566 552.185 323.889 546 333 Z"></path>
  </g>
  <g fill="#1F5C7E" fill-opacity="1.00" stroke="None" transform="matrix(1, 0, 0, 1, -211.266235, -133.019485)">
    <path d="M 473 347 C 480.084 340.246 477.176 342.756 482 339 C 476.14 339.17 470.22 331.87 472 326 C 468 326 464 326 460 326 C 461.48 333.9 465.79 342.36 473 347 Z"></path>
  </g>
  <g fill="#3F88A4" fill-opacity="1.00" stroke="None" transform="matrix(1, 0, 0, 1, -211.266235, -133.019485)">
    <path d="M 396.928 371 C 403.318 368.43 408.549 366.982 418 364 C 412.46 352.443 408.52 343.697 406.049 338.3 C 404.51 343.349 401.056 355.683 396.928 371 Z"></path>
  </g>
  <g fill="#B6D4DF" fill-opacity="1.00" stroke="None" transform="matrix(1, 0, 0, 1, -211.266235, -133.019485)">
    <path d="M 570 433 C 601.086 407.101 573.732 429.403 606.22 402.653 C 653.895 400.658 662.19 400.01 662 400 C 619.327 368.306 649.916 391.071 600.909 354.356 C 567.046 393.127 589.358 368.042 557 405 C 557.817 427.42 557.86 423.951 558.336 432.287 C 564.761 432.434 565.344 432.705 570 433 Z"></path>
  </g>
  <g fill="#ABCFDD" fill-opacity="1.00" stroke="None" transform="matrix(1, 0, 0, 1, -211.266235, -133.019485)">
    <path d="M 367 428 C 368.512 412.486 367.866 421.249 369 410 C 391.268 399.057 403.92 393.15 421 385 C 414.575 380.638 423.663 386.514 413.939 380.782 C 396.498 388.604 395.413 388.053 334.624 416.871 C 344.544 420.671 354.069 423.713 367 428 Z"></path>
  </g>
  <g fill="#1C5E81" fill-opacity="1.00" stroke="None" transform="matrix(1, 0, 0, 1, -211.266235, -133.019485)">
    <path d="M 367 428 C 423.723 407.295 427.893 405.588 440 401 C 423.183 387.015 429.392 392.818 421 385 C 402.979 392.962 390.073 399.762 369 410 C 368.094 414.736 367.821 418.562 367 428 Z"></path>
  </g>
  <g fill="#EEF4F6" fill-opacity="1.00" stroke="None" transform="matrix(1, 0, 0, 1, -211.266235, -133.019485)">
    <path d="M 270 567 C 291.999 552.891 272.754 564.9 296.964 549.573 C 291.244 533.073 283.659 501.436 282.709 483.906 C 281.759 466.376 287.347 433.981 291.507 417.431 C 270.687 399.438 281.078 407.976 266 394 C 248.57 449.22 250.39 512.9 270 567 Z"></path>
  </g>
  <g fill="#226588" fill-opacity="1.00" stroke="None" transform="matrix(1, 0, 0, 1, -211.266235, -133.019485)">
    <path d="M 570 433 C 641.69 432.22 653.188 432.052 705 432 C 674.504 409.007 693.155 423.186 662 400 C 662.19 400.01 651.242 400.381 606.264 402.556 C 572.871 429.352 602.035 405.6 570 433 Z"></path>
  </g>
  <g fill="#1B5679" fill-opacity="1.00" stroke="None" transform="matrix(1, 0, 0, 1, -211.266235, -133.019485)">
    <path d="M 468 472 C 465.777 434.94 465.451 425.847 464 402 C 451.901 408.297 447.844 410.984 435 417 C 452.442 445.12 447.407 437.199 468 472 Z"></path>
  </g>
  <g fill="#BAD7E0" fill-opacity="1.00" stroke="None" transform="matrix(1, 0, 0, 1, -211.266235, -133.019485)">
    <path d="M 468 472 C 468.59 474.71 468.597 474.476 470 480 C 476.922 479.957 479.525 479.916 485 480 C 490.241 467.147 503.87 431.405 507.387 422.472 C 471.584 404.991 494.72 416.532 464 402 C 465.396 425.47 466.559 448.086 468 472 Z"></path>
  </g>
  <g fill="#1C5A7E" fill-opacity="1.00" stroke="None" transform="matrix(1, 0, 0, 1, -211.266235, -133.019485)">
    <path d="M 485 480 C 518.2 457.391 521.848 454.357 546 438 C 520.661 428.483 527.125 430.982 507.315 422.432 C 504.159 432.062 502.968 433.908 485 480 Z"></path>
  </g>
  <g fill="#5391AC" fill-opacity="1.00" stroke="None" transform="matrix(1, 0, 0, 1, -211.266235, -133.019485)">
    <path d="M 422 453 C 442.398 490.333 423.07 454.948 444.311 493.635 C 446.811 492.305 445.616 493.224 455 488 C 446.06 471.81 435.79 455.56 426 440 C 424.79 443.94 423.28 448.72 422 453 Z"></path>
  </g>
  <g fill="#C0D9E2" fill-opacity="1.00" stroke="None" transform="matrix(1, 0, 0, 1, -211.266235, -133.019485)">
    <path d="M 653.572 448 C 637.519 448.435 645.695 448.246 608.658 448.658 C 630.368 465.138 646.487 480.327 673 504 C 692.88 485.695 679.187 498.867 697.123 481.904 C 657.272 451.175 693.044 479.184 653.572 448 Z"></path>
  </g>
  <g fill="#CADEE5" fill-opacity="1.00" stroke="None" transform="matrix(1, 0, 0, 1, -211.266235, -133.019485)">
    <path d="M 761 537 C 765.105 495.07 763.279 512.962 767 452 C 757.46 455.94 748.82 462.58 739 466 C 737.129 490.547 736.689 489.193 734.671 518.011 C 756.085 531.775 744.914 525.976 761 537 Z"></path>
  </g>
  <g fill="#F8FAFB" fill-opacity="1.00" stroke="None" transform="matrix(1, 0, 0, 1, -211.266235, -133.019485)">
    <path d="M 427 633 C 428.933 625.105 442.576 509.479 444.573 493.577 C 422.953 454.079 443.747 491.037 422.176 452.765 C 416.676 473.325 413.209 484.545 391.631 558.511 C 423.291 625.448 417.33 613.99 427 633 Z"></path>
  </g>
  <g fill="#2A6586" fill-opacity="1.00" stroke="None" transform="matrix(1, 0, 0, 1, -211.266235, -133.019485)">
    <path d="M 560 476 C 591.751 480.396 568.819 477.052 594.702 480.851 C 594.411 466.286 594.637 474.126 594.56 461.425 C 565.361 473.363 588.834 463.797 560 476 Z"></path>
  </g>
  <g fill="#75859C" fill-opacity="1.00" stroke="None" transform="matrix(1, 0, 0, 1, -211.266235, -133.019485)"></g>
  <g fill="#F6F9FA" fill-opacity="1.00" stroke="None" transform="matrix(1, 0, 0, 1, -211.266235, -133.019485)">
    <path d="M 486 526 C 486.26 527.57 490.72 530.81 492 532 C 495.42 534 498.915 538.465 502.365 540.525 C 505.015 534.015 506.415 540.202 542.754 537.737 C 551.265 483.396 545.524 519.199 552 477 C 517.388 482.64 551.829 477.04 515.131 482.904 C 505.641 496.444 509.937 490.032 486 526 Z"></path>
  </g>
  <g fill="#4D90AC" fill-opacity="1.00" stroke="None" transform="matrix(1, 0, 0, 1, -211.266235, -133.019485)">
    <path d="M 585 479 C 569.029 502.945 578.721 488.377 556.361 521.981 C 553.524 543.15 552.522 549.773 551.241 558.987 C 562.155 556.136 581.762 555.128 590 552 C 594.221 492.202 589.882 541.827 594.701 480.824 C 590.799 480.154 588.258 479.685 585 479 Z"></path>
  </g>
  <g fill="#387C9B" fill-opacity="1.00" stroke="None" transform="matrix(1, 0, 0, 1, -211.266235, -133.019485)">
    <path d="M 444.352 493.481 C 438.937 535.174 427.91 621.099 427.011 633.065 C 432.628 621.644 460.404 542.732 472.632 506.213 C 455.018 487.744 463 496.91 455 488 C 449.957 490.765 452.074 489.572 444.352 493.481 Z"></path>
  </g>
  <g fill="#B7D3DE" fill-opacity="1.00" stroke="None" transform="matrix(1, 0, 0, 1, -211.266235, -133.019485)">
    <path d="M 658 544 C 660.964 541.015 666.452 535.299 667.452 534.099 C 646.67 519.077 648.786 521.168 643.016 517.388 C 640.671 503.214 641.601 508.673 640 501 C 631.497 494.02 638.391 499.431 629 492 C 625.44 514.25 635.3 538.38 658 544 Z"></path>
  </g>
  <g fill="#226184" fill-opacity="1.00" stroke="None" transform="matrix(1, 0, 0, 1, -211.266235, -133.019485)">
    <path d="M 708.383 493.9 C 699.983 500.33 659.82 541.57 658 544 C 685.71 552.35 713.503 523.1 708.383 493.9 Z"></path>
  </g>
  <g fill="#71ABBF" fill-opacity="1.00" stroke="None" transform="matrix(1, 0, 0, 1, -211.266235, -133.019485)">
    <path d="M 667.336 534.166 C 671.668 529.748 669.108 532.417 673.599 527.698 C 672.659 527.028 648.6 509.03 640 501 C 641.275 508.486 640.957 505.473 642.935 517.321 C 664.708 532.893 650.457 522.319 667.336 534.166 Z"></path>
  </g>
  <g fill="#7BB0C5" fill-opacity="1.00" stroke="None" transform="matrix(1, 0, 0, 1, -161.330643, -162.914017)">
    <path d="M 502.052 506.883 C 494.545 542.914 501.698 509.253 494.361 543.357 C 507.692 548.125 496.764 543.721 508.968 548.39 C 532.799 513.061 513.16 542.315 535.144 508.974 C 511.48 505.806 533.794 508.804 510.199 505.708 C 503.373 506.727 509.803 505.775 502.052 506.883 Z"></path>
  </g>
  <g fill="#BCD8E2" fill-opacity="1.00" stroke="None" transform="matrix(1, 0, 0, 1, -211.266235, -133.019485)">
    <path d="M 466.929 575.123 C 471.593 586.915 470.252 583.295 479 599 C 487.709 613.276 489.591 615.09 513 644 C 518.434 624.291 519.114 619.129 522 605 C 507.813 598.537 499.163 594.434 493 571 C 490.574 563.09 491.51 554.707 492.152 531.798 C 486.535 526.474 491.754 531.328 486 526 C 468.287 569.706 484.21 529.854 466.929 575.123 Z"></path>
  </g>
  <g fill="#5FA1B9" fill-opacity="1.00" stroke="None" transform="matrix(1, 0, 0, 1, -211.266235, -133.019485)">
    <path d="M 492.098 531.788 C 490.462 541.168 490.544 537.811 489.812 546.478 C 490.158 553.191 490.069 553.789 490.758 558.614 C 499.264 555.824 497.616 558.953 504.045 555.945 C 502.295 551.485 501.858 543.892 502.798 539.402 C 492.388 532.072 501.567 538.431 492.098 531.788 Z"></path>
  </g>
  <g fill="#4688A3" fill-opacity="1.00" stroke="None" transform="matrix(1, 0, 0, 1, -211.266235, -133.019485)">
    <path d="M 490.743 558.564 C 491.252 563.361 490.696 563.208 493 571 C 501.905 568.912 503.579 569.865 508.36 567.84 C 506.71 563.787 503.96 558.7 502.995 554.475 C 496.838 556.904 497.724 556.366 490.743 558.564 Z"></path>
  </g>
  <g fill="#1C5B7E" fill-opacity="1.00" stroke="None" transform="matrix(1, 0, 0, 1, -211.266235, -133.019485)">
    <path d="M 625 558 C 654.911 588.34 638.179 571.97 660 591 C 638.534 607.913 622.841 620.815 604 641 C 601.37 652.47 602.303 649.743 598.363 665.91 C 676.67 599.658 618.021 649.118 683.299 593.952 C 635.278 552.7 675.95 587.21 628.096 546.544 C 627.646 549.254 625.57 555.36 625 558 Z"></path>
  </g>
  <g fill="#C6DCE4" fill-opacity="1.00" stroke="None" transform="matrix(1, 0, 0, 1, -211.266235, -133.019485)">
    <path d="
M 572.00 734.00 
C 585.14 730.01 599.59 724.64 611.92 718.92 C 624.26 713.21 635.57 707.09 646.75 699.75 C 657.93 692.41 667.17 684.08 677.25 675.25 C 687.32 666.42 695.17 657.97 703.75 647.75 C 712.33 637.54 719.59 627.02 726.70 615.70 C 733.80 604.37 739.46 592.51 745.22 580.22 C 750.99 567.94 733.63 560.16 726.00 551.00
C 720.32 566.11 712.69 583.18 704.30 597.30 C 695.92 611.42 687.34 623.87 675.77 635.77 C 664.20 647.67 654.54 659.42 640.25 668.25 C 625.95 677.07 615.29 687.98 598.08 693.08 C 580.86 698.17 574.44 716.22 572.00 734.00 Z"></path>
  </g>
  <g fill="#185579" fill-opacity="1.00" stroke="None" transform="matrix(1, 0, 0, 1, -211.266235, -133.019485)">
    <path d="M 590 552 C 580.351 554.829 501.393 568.692 493 571 C 502.344 603.624 580.835 619.566 590 552 Z"></path>
  </g>
  <g fill="#205877" fill-opacity="1.00" stroke="None" transform="matrix(1, 0, 0, 1, -211.266235, -133.019485)">
    <path d="M 694 557 C 682.224 561.868 690.866 558.434 679 563 C 688.891 571.871 681.406 565.22 693 576 C 693.627 564.064 693.332 567.006 694 557 Z"></path>
  </g>
  <g fill="#B9D7E2" fill-opacity="1.00" stroke="None" transform="matrix(1, 0, 0, 1, -211.266235, -133.019485)">
    <path d="M 604 641 C 641.494 608.632 642.16 608.52 660 591 C 630.923 563.504 657.829 588.546 625 558 C 618.182 587.157 621.895 571.776 604 641 Z"></path>
  </g>
  <g fill="#1E597F" fill-opacity="1.00" stroke="None" transform="matrix(1, 0, 0, 1, -211.266235, -133.019485)">
    <path d="M 458 602 C 461.004 606.321 459.552 604.275 467 614 C 471.126 612.205 469.815 613.003 471.334 612.189 C 470.084 610.659 471.235 612.056 470.497 611.255 C 477.731 601.384 470.815 610.863 479 599 C 476.67 594.23 477.564 596.403 466.99 574.8 C 463.38 586.06 461.95 590.45 458 602 Z"></path>
  </g>
  <g fill="#C5DCE5" fill-opacity="1.00" stroke="None" transform="matrix(1, 0, 0, 1, -211.266235, -133.019485)">
    <path d="M 430 727 C 425.21 703.838 428.598 719.721 420 691 C 372.61 668.86 331.73 627.37 310 580 C 289.15 598.854 307.359 582.122 288 600 C 316.05 658 370.43 705.01 430 727 Z"></path>
  </g>
  <g fill="#07233F" fill-opacity="1.00" stroke="None" transform="matrix(1, 0, 0, 1, -211.266235, -133.019485)">
    <path d="M 470.41 611.25 C 507.291 655.984 474.593 616.273 508.566 657.315 C 512.096 646.075 511.597 648.834 512.925 643.251 C 482.681 603.883 509.563 638.608 479 599 C 471.516 609.878 478.045 600.447 470.41 611.25 Z"></path>
  </g>
  <g fill="#BDD9E2" fill-opacity="1.00" stroke="None" transform="matrix(1, 0, 0, 1, -211.266235, -133.019485)">
    <path d="M 499 710 C 504.097 689.412 507.79 673.28 509 668 C 468.492 614.871 496.12 652.833 458 602 C 443.092 643.46 456.713 604.536 439.587 653.392 C 457.411 700.603 446.834 673.749 469 731 C 489.746 715.431 473.301 727.999 499 710 Z"></path>
  </g>
  <g fill="#1E5E81" fill-opacity="1.00" stroke="None" transform="matrix(1, 0, 0, 1, -211.266235, -133.019485)">
    <path d="M 522 605 C 509.873 653.351 521.122 608.538 508.667 656.866 C 505.505 653.047 503.493 650.991 500.813 647.911 C 497.904 651.132 499.795 649.018 496.872 652.262 C 499.265 655.504 498.962 654.97 509.018 668.109 C 519.778 660.469 550.516 630.994 561.616 623.744 C 564.88 610.049 561.703 622.879 566 607 C 528.877 605.4 559.664 607.015 522 605 Z"></path>
  </g>
  <g fill="#3C7995" fill-opacity="1.00" stroke="None" transform="matrix(1, 0, 0, 1, -211.266235, -133.019485)">
    <path d="M 467 614 C 473.426 623.174 474.001 623.6 496.955 652.302 C 500.512 648.281 497.533 651.783 500.803 647.909 C 495.248 640.7 476.964 618.86 471.223 612.216 C 468.891 613.12 470.713 612.39 467 614 Z"></path>
  </g>
  <g fill="#1C597C" fill-opacity="1.00" stroke="None" transform="matrix(1, 0, 0, 1, -211.266235, -133.019485)">
    <path d="M 505.218 684.09 C 499.471 706.866 504.147 688.072 499 710 C 543.827 679.087 562.451 664.388 570.321 659.468 C 571.692 646.852 570.332 651.809 571.632 639.145 C 511.987 679.343 568.433 640.974 505.218 684.09 Z"></path>
  </g>
  <g fill="#4388A7" fill-opacity="1.00" stroke="None" transform="matrix(1, 0, 0, 1, -211.266235, -133.019485)">
    <path d="M 430 727 C 440.61 730.568 432.947 727.861 448 733 C 439.147 704.445 446.797 729.293 437 698 C 422.29 692.051 432.873 696.415 420 691 C 429.316 725.017 422.218 698.759 430 727 Z"></path>
  </g>
  <g fill="#1E5D81" fill-opacity="1.00" stroke="None" transform="matrix(1, 0, 0, 1, -211.266235, -133.019485)">
    <path d="
M 559.00 692.00 
C 538.53 703.07 520.54 719.00 501.00 732.00
C 501.17 734.96 504.79 736.70 504.00 740.00
C 518.62 740.12 532.55 737.48 547.00 737.00
C 551.41 722.14 556.47 707.33 559.00 692.00 Z"></path>
  </g>
  <g>
    <bx:title>round</bx:title>
    <ellipse style="fill: rgb(157, 197, 213);" cx="327.055" cy="416.26" rx="37.478" ry="37.478"></ellipse>
    <ellipse style="fill: rgb(4, 23, 47);" cx="326.801" cy="416.274" rx="29.519" ry="29.519"></ellipse>
    <ellipse style="fill: #24CDE5" cx="326.382" cy="415.659" rx="7.822" ry="7.822"></ellipse>
  </g>
  <ellipse style="fill:#25CDE4;" cx="221.145" cy="165.807" rx="8.396" ry="8.396"></ellipse>
  <ellipse style="fill: #256B8B " cx="290.484" cy="156.143" rx="9.489" ry="9.489"></ellipse>
  <ellipse style="fill: rgb(15, 67, 106);" cx="360.57" cy="364.652" rx="9.912" ry="9.912"></ellipse>
</svg>